<svg xmlns="http://www.w3.org/2000/svg" xmlns:xlink="http://www.w3.org/1999/xlink" width="50" height="50" viewBox="0 0 50 50">
  <defs>
    <clipPath id="clip-_163邮箱">
      <rect width="50" height="50"/>
    </clipPath>
  </defs>
  <g id="_163邮箱" clip-path="url(#clip-_163邮箱)">
    <path id="路径_571" d="M32.064,10.631h3.808a5.479,5.479,0,0,0,4.208-2V19.148a4.388,4.388,0,0,1-3.106,4.208h.4a2.807,2.807,0,0,0,2.2,0h.5v9.419a4.49,4.49,0,0,1-4.509,4.509H32.064v4.91h-.2A5.545,5.545,0,0,0,27.856,44V14.94A4.133,4.133,0,0,1,32.064,10.631Zm0,12.124V35.481h1.8a2.224,2.224,0,0,0,2.2-2.2V24.559h-2a2.29,2.29,0,0,0-1.6,1.1s.7-2.906,2.705-2.906h.9V12.435h-1.8a2.224,2.224,0,0,0-2.2,2.2v8.116ZM21.543,38.888H3.407A3.552,3.552,0,0,0,0,41.994V16.743a4.49,4.49,0,0,1,4.509-4.509h6.313V7.224h.7a5.267,5.267,0,0,0,4.208-2.1v7.014h6.713a3.592,3.592,0,0,0,3.607-3.607V34.278a4.643,4.643,0,0,1-4.509,4.609Zm-.5-24.85H15.631V24.559h3.407c.6,0,1.6-1.1,1.6-1.1s-.6,2.906-2.705,2.906h-2.2V35.08a.431.431,0,0,1-.4.4H11.323a.431.431,0,0,1-.4-.4V26.363H6.914c-.6,0-1.6,1.1-1.6,1.1s.6-2.906,2.705-2.906h2.705V14.038H7.214a2.224,2.224,0,0,0-2.2,2.2V37.084H18.938a2.224,2.224,0,0,0,2.2-2.2Z" transform="translate(4.959 0.441)" fill="#d01d00"/>
  </g>
</svg>
