<svg width="50" height="50" viewBox="0 0 50 50" fill="none" xmlns="http://www.w3.org/2000/svg">
<path d="M25.5903 7.27608C27.7278 10.967 29.8125 14.5647 31.9499 18.2532C33.9501 21.7134 35.9442 25.1779 37.9321 28.6468C38.6013 29.8137 38.5884 30.4266 37.9119 30.7892C37.0479 31.253 35.6231 30.8628 35.1322 30.0143C33.9422 27.9529 32.7558 25.889 31.573 23.8227C29.7493 20.6459 27.9256 17.4703 26.1019 14.296C25.35 12.9873 24.6201 12.9928 23.8682 14.296L10.9129 36.8446C10.0985 38.2618 10.4478 38.8692 12.084 38.8692H37.934C38.1467 38.876 38.3596 38.8717 38.5719 38.8563C39.14 38.7974 39.4727 38.4698 39.4764 37.8992C39.4801 37.3287 39.1584 36.99 38.5848 36.9403C38.3127 36.9145 38.0332 36.9274 37.763 36.9274C30.3652 36.9274 22.9668 36.9274 15.5678 36.9274C15.0163 36.9274 14.4335 36.9698 14.097 36.4176C13.7294 35.8286 14.0584 35.3261 14.3581 34.8053C17.5275 29.3057 20.6902 23.8018 23.8462 18.2936C24.4859 17.1764 24.9897 16.8985 25.6368 17.2942C26.4512 17.7912 26.8832 19.2286 26.431 20.0219C25.4364 21.7723 24.4216 23.519 23.4178 25.2601C22.1407 27.4799 20.8624 29.702 19.5829 31.9266C18.9063 33.1138 19.3016 33.7948 20.6639 33.7966C26.9972 33.7966 33.3306 33.8114 39.6621 33.7819C40.5261 33.7819 41.0574 34.0359 41.4821 34.8182C42.5208 36.7176 43.6478 38.5692 44.738 40.4392C45.3533 41.6024 44.817 41.8693 43.8353 42H6.3573C5.03916 41.954 4.61816 41.0632 5.37375 39.7803C6.48783 37.8864 7.56698 35.9703 8.659 34.0635C13.3929 25.7994 18.1599 17.5537 22.892 9.28229C23.3222 8.52766 24.1195 7.36811 24.2115 7.27608C24.3034 7.18406 24.3953 7 24.9468 7C25.4984 7 25.5903 7.27608 25.5903 7.27608Z" fill="#2D72B8"/>
</svg>
