<svg xmlns="http://www.w3.org/2000/svg" xmlns:xlink="http://www.w3.org/1999/xlink" width="50" height="50" viewBox="0 0 50 50">
  <defs>
    <clipPath id="clip-path">
      <rect id="矩形_208" width="40" height="40"/>
    </clipPath>
    <clipPath id="clip-Baidutuiguang">
      <rect width="50" height="50"/>
    </clipPath>
  </defs>
  <g id="Baidutuiguang" clip-path="url(#clip-Baidutuiguang)">
    <g id="画板_1" transform="translate(5 5)" clip-path="url(#clip-path)">
      <rect width="40" height="40" fill="#fff"/>
      <path d="M48.154,21.067c4.347-.934,3.755-6.129,3.625-7.264-.213-1.75-2.272-4.81-5.068-4.568-3.52.316-4.033,5.4-4.033,5.4C42.2,16.982,43.818,22,48.154,21.067Zm4.617,9.04A3.68,3.68,0,0,0,52.6,32.22a2.4,2.4,0,0,0,2.069,1.907h2.277V28.56H54.513A2.67,2.67,0,0,0,52.771,30.1Zm3.452-17.749c2.4,0,4.342-2.763,4.342-6.18S58.623,0,56.223,0s-4.343,2.762-4.343,6.175,1.946,6.18,4.342,6.18Zm10.342.409c3.209.417,5.273-3.008,5.68-5.6s-1.652-5.6-3.924-6.121-5.12,3.125-5.378,5.5c-.31,2.906.416,5.81,3.619,6.222Zm7.863,15.258a44.252,44.252,0,0,1-7.864-7.993c-3.929-6.122-9.51-3.63-11.377-.517s-4.756,5.082-5.167,5.6-6,3.526-4.758,9.028,5.59,5.394,5.59,5.394a24.378,24.378,0,0,0,6.926-.517,14.61,14.61,0,0,1,6.925.206s8.692,2.91,11.07-2.692-1.344-8.511-1.344-8.511ZM59.555,36.361H53.9a4.96,4.96,0,0,1-3.535-2.436,6.451,6.451,0,0,1-.446-3.9,4.955,4.955,0,0,1,4.062-3.657h3.008v-3.7l2.56.039V36.361Zm10.524-.041h-6.5c-2.52-.65-2.64-2.44-2.64-2.44V26.69l2.64-.042V33.11c.16.69,1.018.814,1.018.814h2.679V26.69h2.806Zm9.2-19.2c0-1.242-1.032-4.982-4.858-4.982s-4.345,3.53-4.345,6.024c0,2.381.2,5.7,4.96,5.6s4.24-5.394,4.24-6.64Zm0,0" transform="translate(-40.95 0.019)" fill="#3245df"/>
    </g>
  </g>
</svg>
