<svg width="50" height="50" viewBox="0 0 50 50" fill="none" xmlns="http://www.w3.org/2000/svg">
<path d="M25.9373 26.5396L7 17.8673V20.3624L25.0061 28.5802L25.9373 26.5396Z" fill="#409eff"/>
<path d="M24.0561 26.5396L24.9873 28.5803L43 20.4381L42.9988 18.0319L24.0561 26.5396ZM25.6185 10.2112L25.0114 8L7 17.8674L8.42239 19.9009L25.6185 10.2112Z" fill="#409eff"/>
<path d="M24.3147 10.2353L41.6198 19.8282L42.9988 18.0319L25.0114 8L24.3147 10.2353ZM25.9057 33.7795L7 25.1162L7.00086 27.626L24.9745 35.8202L25.9057 33.7795Z" fill="#409eff"/>
<path d="M24.0243 33.7794L24.9556 35.8201L42.997 27.6778L42.9958 25.2717L24.0243 33.7794ZM25.8537 40.4522L7 31.8127V34.309L24.9226 42.4929L25.8537 40.4522Z" fill="#409eff"/>
<path d="M23.9722 40.4523L24.9035 42.493L42.9941 34.3793L42.9986 31.901L23.9722 40.4523Z" fill="#409eff"/>
</svg>
