<svg xmlns="http://www.w3.org/2000/svg" xmlns:xlink="http://www.w3.org/1999/xlink" width="50" height="50" viewBox="0 0 50 50">
  <defs>
    <clipPath id="clip-飞书">
      <rect width="50" height="50"/>
    </clipPath>
  </defs>
  <g id="飞书" clip-path="url(#clip-飞书)">
    <g id="组_6" transform="translate(428.954 -810.917)">
      <path d="M29.754,29.681l.083-.083.206-.206.124-.124.413-.413.537-.537.5-.454.454-.454.454-.454.413-.413.578-.578a2.494,2.494,0,0,0,.33-.33c.206-.206.454-.372.661-.578.206-.165.413-.33.661-.5.289-.206.619-.413.95-.619s.661-.372.991-.537a9.454,9.454,0,0,1,.95-.413c.165-.083.372-.124.537-.206a.766.766,0,0,1,.289-.083,23.278,23.278,0,0,0-4.459-8.918A2.2,2.2,0,0,0,32.727,13H15.509a.322.322,0,0,0-.206.578,48.223,48.223,0,0,1,14.451,16.1Z" transform="translate(-432.945 807)" fill="#00d6b9"/>
      <path d="M19,50.759A23.722,23.722,0,0,0,39.683,38.62c.124-.248.289-.5.413-.784a7.225,7.225,0,0,1-.661,1.115,2.271,2.271,0,0,1-.289.372c-.124.165-.248.289-.372.454-.083.124-.206.206-.289.33-.206.206-.413.413-.661.619-.124.124-.248.206-.372.33a3.153,3.153,0,0,1-.454.33c-.083.083-.206.124-.289.206-.124.083-.206.124-.33.206a3.659,3.659,0,0,1-.7.33l-.619.248a3.486,3.486,0,0,1-.7.206,8.251,8.251,0,0,1-1.074.206,5.063,5.063,0,0,1-.785.083c-.289,0-.537.041-.826.041s-.619-.041-.95-.041c-.248-.041-.454-.041-.7-.083l-.619-.124c-.124-.041-.206-.041-.33-.083l-.867-.248c-.165-.041-.289-.083-.454-.124-.206-.083-.454-.124-.661-.206-.165-.041-.372-.124-.537-.165s-.33-.124-.5-.165a2.834,2.834,0,0,1-.33-.124,1.726,1.726,0,0,1-.413-.165c-.083-.041-.206-.083-.289-.124-.206-.083-.372-.124-.578-.206-.124-.041-.206-.083-.33-.124-.165-.041-.289-.124-.454-.165-.165-.083-.33-.124-.5-.206-.083-.041-.206-.083-.289-.124-.124-.041-.248-.124-.372-.165-.083-.041-.206-.083-.289-.124s-.206-.083-.289-.124l-.248-.124-.248-.124-.248-.124-.248-.124a1.236,1.236,0,0,1-.33-.165c-.124-.041-.206-.124-.33-.165s-.248-.124-.372-.165a1.036,1.036,0,0,1-.289-.165A49.571,49.571,0,0,1,5.537,28.38.306.306,0,0,0,5,28.586V45.02A2.155,2.155,0,0,0,5.95,46.8,23.177,23.177,0,0,0,19,50.759Z" transform="translate(-429 801.075)" fill="#3370ff"/>
      <path d="M61.636,45h0l.083-.165C61.677,44.917,61.636,44.958,61.636,45Z" transform="translate(-450.952 794.655)" fill="#133c9a"/>
      <path d="M62.261,44l.041-.041C62.261,43.957,62.261,43.957,62.261,44Z" transform="translate(-451.206 794.995)" fill="#133c9a"/>
      <path d="M54.98,29.107a13.877,13.877,0,0,0-5.987-1.4,13.389,13.389,0,0,0-3.675.5c-.124.041-.289.083-.413.124-.083.041-.206.041-.289.083-.206.083-.372.124-.537.206-.33.124-.661.289-.95.413-.33.165-.661.33-.991.537s-.661.413-.95.619c-.206.165-.454.33-.661.5a4.419,4.419,0,0,0-.661.578,2.492,2.492,0,0,0-.33.33l-.578.578-.413.413-.454.454-.454.454-.5.454-.578.619-.413.413-.124.124-.206.206-.083.083a.569.569,0,0,1-.165.124l-.165.165A24.018,24.018,0,0,1,30.5,39.14a1.237,1.237,0,0,1,.33.165l.248.124.248.124.248.124.248.124c.083.041.206.083.289.124s.206.083.289.124c.124.041.248.124.372.165.083.041.206.083.289.124.165.083.33.124.5.206.165.041.289.124.454.165.124.041.206.083.33.124.206.083.372.124.578.206.083.041.206.083.289.124a1.727,1.727,0,0,1,.413.165,2.846,2.846,0,0,1,.33.124c.165.041.33.124.5.165s.372.124.537.165c.206.083.454.124.661.206.165.041.289.083.454.124l.867.248c.124.041.206.041.33.083l.619.124a4.064,4.064,0,0,0,.7.083,7.3,7.3,0,0,0,.95.041,5.261,5.261,0,0,0,.826-.041,5.056,5.056,0,0,0,.784-.083,9.825,9.825,0,0,0,1.074-.206c.248-.083.454-.124.7-.206l.619-.248c.248-.124.454-.206.7-.33a1.449,1.449,0,0,0,.33-.206c.083-.083.206-.124.289-.206a4.322,4.322,0,0,0,.454-.33,2.67,2.67,0,0,0,.372-.33c.206-.206.454-.413.661-.619.083-.124.206-.206.289-.33a4.4,4.4,0,0,0,.372-.454,2.268,2.268,0,0,1,.289-.372,7.221,7.221,0,0,0,.661-1.115l.248-.454L52.3,33.029A12.285,12.285,0,0,1,54.98,29.107Z" transform="translate(-438.887 801.298)" fill="#133c9a"/>
    </g>
  </g>
</svg>
