<svg xmlns="http://www.w3.org/2000/svg" xmlns:xlink="http://www.w3.org/1999/xlink" width="50" height="50" viewBox="0 0 50 50">
  <defs>
    <clipPath id="clip-github">
      <rect width="50" height="50"/>
    </clipPath>
  </defs>
  <g id="github" clip-path="url(#clip-github)">
    <path d="M20,12.64A20.258,20.258,0,0,0,0,33.147,20.471,20.471,0,0,0,13.677,52.6c1,.19,1.367-.445,1.367-.987,0-.488-.019-2.1-.028-3.818-5.565,1.241-6.739-2.42-6.739-2.42a5.4,5.4,0,0,0-2.22-3c-1.815-1.273.138-1.247.138-1.247a4.217,4.217,0,0,1,3.065,2.113c1.784,3.135,4.679,2.229,5.82,1.7a4.407,4.407,0,0,1,1.27-2.743c-4.443-.518-9.113-2.278-9.113-10.134a8.048,8.048,0,0,1,2.061-5.5,7.54,7.54,0,0,1,.194-5.427s1.68-.551,5.5,2.1a18.5,18.5,0,0,1,10.016,0c3.817-2.653,5.494-2.1,5.494-2.1a7.532,7.532,0,0,1,.2,5.427,8.032,8.032,0,0,1,2.059,5.5c0,7.876-4.679,9.61-9.133,10.119a4.969,4.969,0,0,1,1.356,3.8c0,2.744-.024,4.952-.024,5.628,0,.546.36,1.186,1.374.984A20.469,20.469,0,0,0,40,33.147,20.258,20.258,0,0,0,20,12.64Z" transform="translate(5 -7.64)"/>
  </g>
</svg>
