<?xml version="1.0" standalone="no"?><!DOCTYPE svg PUBLIC "-//W3C//DTD SVG 1.1//EN" "http://www.w3.org/Graphics/SVG/1.1/DTD/svg11.dtd"><svg t="1741622777790" class="icon" viewBox="0 0 1024 1024" version="1.1" xmlns="http://www.w3.org/2000/svg" p-id="1255" xmlns:xlink="http://www.w3.org/1999/xlink" width="200" height="200"><path d="M616.9 622.4H403.1c-16.4 0-29.7-13.3-29.7-29.8s13.3-29.8 29.7-29.8h213.8c16.4 0 29.7 13.3 29.7 29.8s-13.3 29.8-29.7 29.8zM616.9 461.6H403.1c-16.4 0-29.7-13.3-29.7-29.8s13.3-29.8 29.7-29.8h213.8c16.4 0 29.7 13.3 29.7 29.8s-13.3 29.8-29.7 29.8zM616.9 765.4H403.1c-16.4 0-29.7-13.3-29.7-29.8s13.3-29.8 29.7-29.8h213.8c16.4 0 29.7 13.3 29.7 29.8s-13.3 29.8-29.7 29.8z" fill="#409eff"></path><path d="M689.8 926.2H333.5c-55.7 0-101-45.4-101-101.3V608.3h-98.7c-7.9 0-15.4-3.1-21-8.7-19.1-19.1-29.5-44.5-29.5-71.6 0-27.1 10.5-52.5 29.5-71.6L440.2 128c39.3-39.5 103.4-39.5 142.8 0l327.4 328.4c19.1 19.1 29.5 44.5 29.5 71.6 0 27.1-10.5 52.5-29.5 71.6-5.6 5.6-13.1 8.7-21 8.7h-98.7V825c0 55.8-45.3 101.2-100.9 101.2zM148.1 548.7h114.1c16.4 0 29.7 13.3 29.7 29.8v246.4c0 23 18.7 41.7 41.6 41.7h356.3c22.9 0 41.6-18.7 41.6-41.7V578.5c0-16.4 13.3-29.8 29.7-29.8h114.1c3.6-6.2 5.5-13.4 5.5-20.8 0-11.2-4.3-21.7-12.1-29.5L541 170c-16.2-16.3-42.6-16.3-58.8 0L154.7 498.4c-13.5 13.6-15.7 34.4-6.6 50.3z" fill="#409eff"></path></svg>