<svg class="icon" viewBox="0 0 1024 1024" version="1.1" xmlns="http://www.w3.org/2000/svg" xmlns:xlink="http://www.w3.org/1999/xlink" width="50" height="50">
<path d="M500.6 599.8c19.7 24.5 41.5 47.7 67.1 67.9 56.4 44.5 122.9 67.1 203.1 69.1L744 763.5c-14.1 14.1-14.1 36.9 0 50.9 7 7 16.2 10.5 25.5 10.5s18.4-3.5 25.5-10.5l84-84c7.4-7.4 10.9-17.2 10.5-26.9 2.9-11.8-0.3-24.8-9.5-34l-84-84c-14.1-14.1-36.9-14.1-50.9 0s-14.1 36.9 0 50.9l28.4 28.4c-117.4-2.6-177.1-56.5-230-127.1-7.2 10.2-14.4 20.8-21.9 31.6-6.9 10.2-13.9 20.3-21 30.5zM382.8 339.6C323.4 292.8 252.6 270 166.5 270c-19.9 0-36 16.1-36 36s16.1 36 36 36c145.4 0 205.2 75 267.8 165.5 14.2-20.7 28.7-41.8 44.3-62.2-27.2-38.1-57.2-75.3-95.8-105.7z" fill="#409eff"></path>
<path d="M891.5 338.4c0.4-9.7-3.1-19.5-10.5-26.9l-84-84c-14.1-14.1-36.9-14.1-50.9 0-14.1 14.1-14.1 36.9 0 50.9l26.7 26.7c-80.2 2-146.7 24.7-203.1 69.1-51.1 40.3-87.1 92.7-121.8 143.4C380.7 615.5 322.8 700 168.5 700c-19.9 0-36 16.1-36 36s16.1 36 36 36c86.1 0 156.9-22.8 216.3-69.6 51.4-40.5 87.5-93.1 122.4-144 65.5-95.4 122.2-178.1 268.2-181.3L747 405.5c-14.1 14.1-14.1 36.9 0 50.9 7 7 16.2 10.5 25.5 10.5s18.4-3.5 25.5-10.5l84-84c9.2-9.2 12.4-22.2 9.5-34z" fill="#409eff"></path>
</svg>