<svg class="icon" viewBox="0 0 1024 1024" version="1.1" xmlns="http://www.w3.org/2000/svg" xmlns:xlink="http://www.w3.org/1999/xlink" width="50" height="50">
<path d="M774.4 439.4c-8.2 0-16.5 2.9-22.1 8.8-5.7 5.3-8.9 12.9-8.9 20.5v146.8c0 28.7-22.8 53.8-48.1 53.8H315.6l27.2-26.3c8.9-8.8 11.4-21.1 6.3-32.2-3.8-10.5-15.2-18.1-27.8-18.1-8.2 0-16.5 2.9-22.1 8.8L234 664c-9.5 9.4-14.6 21.6-14.6 34.5 0 12.9 5.1 25.1 14.6 34.5l65.2 63.2c7.6 7 19.6 9.9 29.7 7.6 10.8-2.9 19-11.1 21.5-21.1 3.2-9.9 0-21.1-7.6-28.1l-27.2-26.9h379.7c30.4 0 59.5-13.5 78.5-35.1 19.6-21.6 31-49.1 31-77.2V468.7c0-15.8-13.3-29.3-30.4-29.3zM228.3 575.6c5.7 5.8 13.9 8.8 22.1 8.8 16.5 0 30.4-12.9 30.4-29.2V395.4c0-23.4 20.2-40.3 48.7-40.3h379l-27.2 26.3c-6.3 5.3-9.5 12.9-9.5 20.5s3.2 15.2 9.5 21.1c5.7 5.3 13.3 8.2 21.5 8.2s15.8-2.9 21.5-8.2l65.2-63.2c9.5-9.4 15.2-21.6 15.2-34.5 0-12.9-5.7-25.1-15.2-34.5l-65.2-62.6c-5.7-5.8-13.3-8.8-21.5-8.8-12.7 0-24 7.6-28.5 18.1-4.4 11.1-1.9 23.4 7 32.2l27.2 26.3h-379c-27.8-0.6-55.1 9.4-75.9 26.3-22.1 19.3-34.8 45.6-34.2 73.1V555c0.1 7.7 3.2 15.3 8.9 20.6z" fill="#409eff"></path>
<path d="M896 0H128C57.6 0 0 57 0 128v768c0 71 57.6 128 128 128h768c70.4 0 128-57 128-128V128c0-71-57.6-128-128-128z m54.9 888.2c0 34.5-28.2 62.7-62.7 62.7H135.8c-34.5 0-62.7-28.2-62.7-62.7V135.8c0-34.5 28.2-62.7 62.7-62.7h752.3c34.5 0 62.7 28.2 62.7 62.7v752.4z" fill="#409eff"></path>
</svg>