<?xml version="1.0" standalone="no"?><!DOCTYPE svg PUBLIC "-//W3C//DTD SVG 1.1//EN" "http://www.w3.org/Graphics/SVG/1.1/DTD/svg11.dtd"><svg t="1735999636732" class="icon" viewBox="0 0 1024 1024" version="1.1" xmlns="http://www.w3.org/2000/svg" p-id="1668" xmlns:xlink="http://www.w3.org/1999/xlink" width="200" height="200"><path d="M924.54912 381.952c0 50.93376-1.92512 101.84704 0 152.7808 4.44416 98.26304-28.79488 183.296-87.4496 258.8672a646.61504 646.61504 0 0 1-212.11136 179.63008c-75.3664 40.01792-148.97152 40.7552-223.92832 0C278.44608 907.264 181.69856 816.20992 127.5904 685.34272a335.62624 335.62624 0 0 1-23.552-118.33344c-3.01056-124.45696-0.90112-249.20064-0.90112-373.9648 0-34.4064 0-34.0992 33.23904-35.6352 131.2768-6.10304 248.85248-54.0672 356.12672-128.1024 14.7456-10.79296 24.84224-12.32896 41.00096-1.024 110.4896 76.88192 231.69024 130.7648 370.0736 129.2288 17.85856 0 20.6848 8.35584 20.1728 23.32672v201.03168h0.8192v0.1024z m-760.832-162.304c-0.6144 6.92224-1.31072 11.10016-1.31072 15.1552 0 115.38432-1.2288 230.76864 0.90112 346.25536 0.8192 29.63456 7.39328 58.79808 19.39456 85.85216 54.53824 121.58976 147.456 205.824 263.82336 265.58464 46.55104 23.83872 92.09856 20.3776 137.85088-3.15392a601.9072 601.9072 0 0 0 212.91008-183.296c35.04128-46.96064 61.60384-98.69312 63.32416-158.26944 2.53952-116.08064 1.31072-232.38656 0.6144-348.5696a26.7264 26.7264 0 0 0-16.26112-19.5584c-20.80768-6.22592-42.61888-9.17504-64.04096-13.55776-89.4976-18.2272-169.2672-59.67872-246.84544-105.90208a32.91136 32.91136 0 0 0-38.87104-1.024c-102.31808 60.90752-209.67424 107.84768-331.48928 120.48384z" fill="#409eff" p-id="1669"></path><path d="M323.09248 557.6704c0.45056-2.70336 1.10592-5.34528 1.9456-7.92576 36.22912-60.49792 36.12672-60.49792 87.6544-15.4624 21.6064 18.8416 43.4176 37.33504 70.30784 60.27264 8.56064-12.10368 15.9744-23.92064 24.63744-34.52928 55.5008-68.93568 112.08704-137.23648 167.99744-206.9504 11.10016-13.84448 19.456-15.81056 32.03072-3.13344 12.57472 12.65664 23.18336 21.64736 36.72064 33.77152l-255.83616 318.8736-165.4784-144.93696z" fill="#409eff" p-id="1670"></path></svg>