<svg xmlns="http://www.w3.org/2000/svg" xmlns:xlink="http://www.w3.org/1999/xlink" width="50" height="50" viewBox="0 0 50 50">
  <defs>
    <clipPath id="clip-Qqyouuxiang">
      <rect width="50" height="50"/>
    </clipPath>
  </defs>
  <g id="Qqyouuxiang" clip-path="url(#clip-Qqyouuxiang)">
    <g transform="translate(-349.755 4.817)">
      <path d="M464.36,687.88a5.485,5.485,0,0,0-3.718,1.81,20.489,20.489,0,0,1-24.466,2.11,20.592,20.592,0,0,0,17.035,9.048,20.2,20.2,0,0,0,15.176-6.634,15.9,15.9,0,0,0,.308-2.414C468.078,689.387,466.531,687.88,464.36,687.88Zm0,0" transform="translate(-78.28 -660.481)" fill="#ed4636"/>
      <path d="M861.321,7.773a8.272,8.272,0,0,0-2.414.9A3.773,3.773,0,0,0,858,13.8a5.231,5.231,0,0,0,3.317,2.11,21.2,21.2,0,0,1,11.158,8.744,19.234,19.234,0,0,1,2.414,10.858,19.6,19.6,0,0,0-.3-18.7A20.615,20.615,0,0,0,861.321,7.773Zm0,0" transform="translate(-482.364 -7.473)" fill="#82d531"/>
      <path d="M362.727,25.333a4.467,4.467,0,0,0,.3-3.92,18.568,18.568,0,0,1,2.11-13.872A19.654,19.654,0,0,1,373.282,0,19.587,19.587,0,0,0,357.3,9.651a19.7,19.7,0,0,0-1.507,15.985,9.129,9.129,0,0,0,2.11,1.507C359.407,28.047,361.52,27.443,362.727,25.333Zm0,0" fill="#f8be32"/>
      <path d="M752.057,360.1a6.1,6.1,0,0,0-1.507-2.714c.3-1.507-.3-1.507-.3-1.507,0-4.524-3.92-4.224-3.92-4.224a3.941,3.941,0,0,0-3.92,4.224s-.6.3-.3,1.507A4.463,4.463,0,0,0,740.6,360.1s-.3,2.714,1.207.3a4.393,4.393,0,0,0,.9,1.507,1.342,1.342,0,0,0-.9,1.207s0,.9,2.11.9a2.832,2.832,0,0,0,2.11-.9h.6a5.232,5.232,0,0,0,2.11.9c2.414,0,2.11-.9,2.11-.9a1.347,1.347,0,0,0-.9-1.207,15.249,15.249,0,0,0,.9-1.507C752.357,362.816,752.057,360.1,752.057,360.1Zm0,0" transform="translate(-370.476 -337.657)" fill="#1599ff"/>
    </g>
  </g>
</svg>
