<svg xmlns="http://www.w3.org/2000/svg" xmlns:xlink="http://www.w3.org/1999/xlink" width="50" height="50" viewBox="0 0 50 50">
  <defs>
    <clipPath id="clip-SF">
      <rect width="50" height="50"/>
    </clipPath>
  </defs>
  <g id="SF" clip-path="url(#clip-SF)">
    <g id="组_96" data-name="组 96" transform="translate(5 5.001)">
      <path id="路径_103" data-name="路径 103" d="M5.683,4.41a25.463,25.463,0,0,1,28.658.008l-.871.68q-1.294,1.014-2.589,2.043a.333.333,0,0,1-.437,0,21.2,21.2,0,0,0-18.392-1.2c-.879.355-1.71.816-2.569,1.226a.378.378,0,0,1-.277,0C8.026,6.262,6.854,5.344,5.69,4.442c0,.008,0-.012-.008-.031ZM4.414,34.332a25.483,25.483,0,0,1,0-28.668l1.035,1.32c.566.723,1.125,1.445,1.687,2.16a.289.289,0,0,1,.035.387A21.151,21.151,0,0,0,5.976,27.977c.355.859.8,1.676,1.2,2.515a.362.362,0,0,1,0,.285C6.261,31.961,5.355,33.133,4.414,34.332Zm29.919,1.277a25.27,25.27,0,0,1-12.082,4.285,25.51,25.51,0,0,1-16.623-4.3l3.659-2.847c.922.43,1.8.89,2.726,1.273a20.827,20.827,0,0,0,9.442,1.511A21,21,0,0,0,30.514,32.8a.3.3,0,0,1,.281,0c1.164.89,2.316,1.8,3.475,2.726C34.29,35.554,34.313,35.582,34.333,35.609ZM35.6,5.645a25.609,25.609,0,0,1,0,28.711l-1.749-2.234-.976-1.234a.339.339,0,0,1-.047-.437,21.143,21.143,0,0,0,2.726-11.584,20.8,20.8,0,0,0-2.683-9.241.431.431,0,0,1,.043-.57C33.747,8,34.575,6.934,35.4,5.871l.2-.227Zm-17.26,10.19A5.914,5.914,0,0,0,15.3,14.358a4.945,4.945,0,0,0-2.726.148A1.552,1.552,0,0,0,11.5,16.135a1.283,1.283,0,0,0,.625,1.086q1.025.633,2.042,1.18a13.353,13.353,0,0,1,3.405,2.324,5.328,5.328,0,0,1,.172,7.214,5.028,5.028,0,0,1-3.268,1.629A8.86,8.86,0,0,1,8.389,28.11a.625.625,0,0,1-.328-.6V24.033c.328.309.621.625.949.9a6.35,6.35,0,0,0,4.506,1.558,1.929,1.929,0,0,0,1.855-1.129,2.157,2.157,0,0,0-.613-2.726,12.178,12.178,0,0,0-2.628-1.5,9.62,9.62,0,0,1-2.765-1.785A4.575,4.575,0,0,1,9.3,13.038a5.68,5.68,0,0,1,3.667-1.73,8.209,8.209,0,0,1,4.768.785.982.982,0,0,1,.648,1.062c-.066.8,0,1.6,0,2.406l-.047.273ZM24.36,29.692H20.955V12.632a.347.347,0,0,1,.277-.387,17.032,17.032,0,0,1,6.431-1.074,8.947,8.947,0,0,1,3.9,1.008.592.592,0,0,1,.359.6v2.937h-.1a7.936,7.936,0,0,0-5.447-1.3,17.314,17.314,0,0,0-1.785.34c-.242.047-.258.2-.258.4V29.239l.023.453Z" transform="translate(0 0)"/>
      <path id="路径_104" data-name="路径 104" d="M671.922,472.472a2.042,2.042,0,0,1-2.051-2.035c0-.062,0-.125.008-.184a2.1,2.1,0,0,1,2.043-1.968,2.077,2.077,0,0,1,2.1,2.058v.035A2.1,2.1,0,0,1,671.922,472.472Z" transform="translate(-643.712 -449.994)" fill="red"/>
    </g>
  </g>
</svg>
