<svg width="50" height="50" viewBox="0 0 50 50" fill="none" xmlns="http://www.w3.org/2000/svg">
<path fill-rule="evenodd" clip-rule="evenodd" d="M8.91045 39.4627L6.28358 34.209L9.56716 29.6119L3 19.7612L6.9403 13.8507H12.8507L18.1045 4H25.9851L28.6119 9.25373H40.4328L43.7164 14.5075L40.4328 19.7612L47 29.6119L43.0597 36.1791H37.1493L32.5522 46.0299H24.0149L20.7313 40.7761H9.56716L8.91045 39.4627ZM14.1642 15.1641L18.7612 5.97012L22.7015 9.2537L20.0746 15.1641H41.7463L38.4627 19.7612L45.0299 29.6119H39.7761L35.8358 25.0149L25.3284 45.3731L21.3881 39.4627H10.8806L13.5075 34.2089H18.7612L8.25373 15.1641H14.1642ZM31.2388 21.0746H18.1045L25.3284 32.8955L31.2388 21.0746Z" fill="url(#paint0_linear_5311_52)"/>
<defs>
<linearGradient id="paint0_linear_5311_52" x1="25" y1="4" x2="25" y2="46.0299" gradientUnits="userSpaceOnUse">
<stop stop-color="#818CF9"/>
<stop offset="0.484375" stop-color="#6962F5"/>
<stop offset="1" stop-color="#5951CA"/>
</linearGradient>
</defs>
</svg>
