<svg xmlns="http://www.w3.org/2000/svg" xmlns:xlink="http://www.w3.org/1999/xlink" width="50" height="50" viewBox="0 0 50 50">
  <defs>
    <clipPath id="clip-path">
      <rect id="矩形_23" data-name="矩形 23" width="50" height="50"/>
    </clipPath>
  </defs>
  <g id="自定义大小_17" data-name="自定义大小 – 17" clip-path="url(#clip-path)">
    <g id="qiyeweixin" clip-path="url(#clip-path)">
      <g id="组_176" data-name="组 176" transform="translate(5 8.14)">
        <path id="路径_91" data-name="路径 91" d="M23.155,27.986A18.091,18.091,0,0,1,15.226,29a26.209,26.209,0,0,1-3.543-.674.62.62,0,0,0-.506.169c-1.518.674-3.037,1.517-4.386,2.192a1.266,1.266,0,0,1-1.518,0c-.506-.337-.506-.843-.506-1.517a25.559,25.559,0,0,0,.506-3.54c0-.169-.169-.337-.169-.506a18.874,18.874,0,0,1-4.049-5.563,12.272,12.272,0,0,1,1.012-11.8C4.429,3.709,8.14,1.517,12.526.506A18.3,18.3,0,0,1,25.179,2.023a14.019,14.019,0,0,1,7.592,8.767,10.549,10.549,0,0,1,.506,4.552,2.337,2.337,0,0,0-2.868-.506,9.329,9.329,0,0,0-.337-3.035A12.127,12.127,0,0,0,26.36,6.069,15.612,15.612,0,0,0,16.238,2.7,15.451,15.451,0,0,0,6.284,7.081a10.313,10.313,0,0,0-3.205,8.092,10.858,10.858,0,0,0,3.037,6.744l1.35,1.349a1.2,1.2,0,0,1,.506,1.686c-.169.674-.337,1.517-.506,2.192,0,.169-.169.337,0,.337a.234.234,0,0,0,.337,0,23.627,23.627,0,0,0,2.7-1.686,1.936,1.936,0,0,1,1.687-.169,15.533,15.533,0,0,0,8.773,0c.169,0,.337-.169.337.169A3.423,3.423,0,0,0,23.155,27.986Z" fill="#0082ef"/>
        <path id="路径_92" data-name="路径 92" d="M1008,678.2a2.2,2.2,0,0,1-1.856,2.193,7.856,7.856,0,0,0-4.218,2.193c-.337.337-.506.337-.844.169a.753.753,0,0,1,0-.844,8.5,8.5,0,0,0,2.193-4.218,2.406,2.406,0,0,1,2.531-1.856A2.376,2.376,0,0,1,1008,678.2Z" transform="translate(-968.004 -653.593)" fill="#0081ee"/>
        <path id="路径_93" data-name="路径 93" d="M812.913,818.036a2.379,2.379,0,0,1-2.362-1.856,6.06,6.06,0,0,0-2.193-4.049c-.169-.169-.337-.337-.169-.675.169-.506.506-.506.844-.337s.506.506.675.675a6.789,6.789,0,0,0,3.374,1.518,2.262,2.262,0,0,1,1.856,2.531,1.992,1.992,0,0,1-2.025,2.193Z" transform="translate(-781.512 -784.316)" fill="#fa6202"/>
        <path id="路径_94" data-name="路径 94" d="M682.24,616.648a2.346,2.346,0,0,1,1.856-2.362,7.857,7.857,0,0,0,4.218-2.193c.337-.337.675-.337.844,0,.169.169.169.506-.169.844a7.288,7.288,0,0,0-2.024,3.711,1.014,1.014,0,0,1-.169.675,2.236,2.236,0,0,1-2.531,1.687,2.365,2.365,0,0,1-2.025-2.362Z" transform="translate(-659.777 -591.696)" fill="#fecd00"/>
        <path id="路径_95" data-name="路径 95" d="M890.379,477.809a9.456,9.456,0,0,0,1.687,2.531c.337.337.337.675.169.844-.169.337-.506.337-.843,0a6.521,6.521,0,0,0-3.205-2.025,2.14,2.14,0,0,0-1.012-.169,1.793,1.793,0,0,1-1.518-1.35,2.042,2.042,0,0,1,.337-2.362,2.26,2.26,0,0,1,2.362-.844,2.378,2.378,0,0,1,1.687,1.856,4.923,4.923,0,0,0,.336,1.519Z" transform="translate(-856.284 -458.758)" fill="#2cbd00"/>
      </g>
    </g>
  </g>
</svg>
