<svg xmlns="http://www.w3.org/2000/svg" xmlns:xlink="http://www.w3.org/1999/xlink" width="50" height="50" viewBox="0 0 50 50">
  <defs>
    <clipPath id="clip-wechat">
      <rect width="50" height="50"/>
    </clipPath>
  </defs>
  <g id="wechat" clip-path="url(#clip-wechat)">
    <g id="组_173" data-name="组 173" transform="translate(5 2.041)">
      <path id="路径_83" data-name="路径 83" d="M303.261,341.827a1.176,1.176,0,1,0,0,2.314,1.093,1.093,0,0,0,1.157-1.157A1.078,1.078,0,0,0,303.261,341.827Zm9.4,6.71a.992.992,0,0,0-.9.926.969.969,0,0,0,.9.926.949.949,0,1,0,0-1.851Zm-2.979-4.4a1.108,1.108,0,0,0,1.157-1.157,1.093,1.093,0,0,0-1.157-1.157,1.176,1.176,0,1,0,0,2.314Zm8.012,4.4a.992.992,0,0,0-.9.926.969.969,0,0,0,.9.926.949.949,0,1,0,0-1.851Z" transform="translate(-290.028 -325.584)" fill="#28c445"/>
      <path id="路径_84" data-name="路径 84" d="M20,2.96a20,20,0,1,0,20,20,20,20,0,0,0-20-20ZM16.2,28.09a13.061,13.061,0,0,1-3.188-.493L9.826,29.22l.9-2.812c-2.29-1.623-3.681-3.739-3.681-6.261,0-4.435,4.145-7.913,9.159-7.913,4.493,0,8.464,2.783,9.246,6.522-.29-.029-.58-.058-.87-.058a7.6,7.6,0,0,0-7.768,7.391,7.323,7.323,0,0,0,.29,1.942c-.29.029-.609.058-.9.058Zm13.565,3.246.7,2.319-2.493-1.391a11.176,11.176,0,0,1-2.754.464c-4.377,0-7.826-3.014-7.826-6.754-.029-3.71,3.42-6.725,7.768-6.725,4.145,0,7.8,3.043,7.8,6.754,0,2.087-1.362,3.942-3.188,5.333Z" fill="#28c445"/>
    </g>
  </g>
</svg>
