<svg xmlns="http://www.w3.org/2000/svg" xmlns:xlink="http://www.w3.org/1999/xlink" width="50" height="50" viewBox="0 0 50 50">
  <defs>
    <clipPath id="clip-yongyouyun">
      <rect width="50" height="50"/>
    </clipPath>
  </defs>
  <g id="yongyouyun" clip-path="url(#clip-yongyouyun)">
    <path id="用友云-长方形" d="M48.012,12.977a.684.684,0,0,0,.348-.657V1.622c0-.85-.46-.922-.966-.922H35.962a.637.637,0,0,0-.7.657V6.875a18.744,18.744,0,0,1-.772,5.755.359.359,0,0,0,.077.309.33.33,0,0,0,.232.116h1.468a.648.648,0,0,0,.5-.27,12.878,12.878,0,0,0,.657-3.36H40.6V12.05a.34.34,0,0,0,.348.348h1.7a.313.313,0,0,0,.27-.348V9.462h3.128v1.854c0,.039,0,.077-.077.077H45c-.309,0-.386.193-.386.348v1a.387.387,0,0,0,.386.386h2.742C47.7,13.093,47.857,13.093,48.012,12.977ZM37.777,2.472H40.6v1.7H37.51V2.858a.277.277,0,0,1,.267-.386ZM40.558,7.686Zm0,0h-3.09V5.948h3.09Zm2.317-5.214h2.781c.232,0,.348.077.348.348V4.171H42.875Zm3.206,5.214H42.914V5.948h3.167ZM60.448,6.179c.077,0,.193,0,.193.193a6.441,6.441,0,0,1-1.583,2.356,10.052,10.052,0,0,1-1.275-1.545.365.365,0,0,0-.27-.154H55.5c-.193,0-.193.116-.154.193a14.925,14.925,0,0,0,2.2,2.935A5.867,5.867,0,0,1,55.968,11.2a2.776,2.776,0,0,1-.734.154h-.425c-.27,0-.348.154-.348.386v1c0,.27.116.309.309.309h1a2.542,2.542,0,0,0,1.159-.27,9.733,9.733,0,0,0,2.047-1.352,7.246,7.246,0,0,0,1.892,1.2,4.645,4.645,0,0,0,1.931.463h.927a.338.338,0,0,0,.348-.309V11.625a.241.241,0,0,0-.27-.27H63.65a3.041,3.041,0,0,1-1.583-.309,9.6,9.6,0,0,1-1.545-1C61.99,8.54,63.264,6.763,63.264,5.3a.954.954,0,0,0-1.081-.927H54.964c.077-.425.116-.85.154-1.236H64.04a.346.346,0,0,0,.348-.348v-1a.346.346,0,0,0-.348-.348H55.273c.039-.579.077-.966.077-.966a.333.333,0,0,0-.077-.309A.319.319,0,0,0,55,0H53.535a.484.484,0,0,0-.425.309s-.039.425-.077,1.081H50.754a.381.381,0,0,0-.386.348V2.781a.357.357,0,0,0,.386.348H52.84c-.309,2.781-1.043,6.99-2.51,9.346a.512.512,0,0,0-.039.425.278.278,0,0,0,.27.154h1.468a.767.767,0,0,0,.579-.309l.039-.039a21.974,21.974,0,0,0,2.008-6.527h5.793Zm6.3-2.974H78.677a.387.387,0,0,0,.386-.386V1.777a.387.387,0,0,0-.386-.386H66.743a.387.387,0,0,0-.386.386v1a.4.4,0,0,0,.386.425Zm-.425,3.746H68.4l-1.85,4.674a1.329,1.329,0,0,0,0,1.12,1.341,1.341,0,0,0,1.2.463h9.578a1.779,1.779,0,0,0,1.39-.5,1.455,1.455,0,0,0,.232-1.159L78.137,8.69a.474.474,0,0,0-.309-.348H75.356c-.309,0-.386.193-.386.348v.966a.387.387,0,0,0,.386.386h.811c.193.657.348,1.313.348,1.313H69.331c-.154,0-.154-.077-.116-.154l1.622-4.248H79.1a.387.387,0,0,0,.386-.386v-1a.387.387,0,0,0-.386-.386H66.318a.387.387,0,0,0-.386.386v1a.387.387,0,0,0,.386.385Zm9,8.651a.141.141,0,0,0-.154.154V17.5c-.579.154-.927,0-.927-.232V15.8a.1.1,0,0,0-.116-.116h-.85v1.583c0,.811,1,1.159,2.742.7a.261.261,0,0,0,.154-.232V15.719Zm-25.838.039h-.734a.234.234,0,0,0-.232.116c-.039.039-.579,1.081-.579,1.081a.08.08,0,0,1-.154,0s-.463-1-.5-1.043a.259.259,0,0,0-.27-.154h-.7a.038.038,0,0,0-.039.039c0,.039,1.081,2.356,1.081,2.356s-.541,1.043-.541,1.081c-.039.116,0,.193.116.193H47.7s1.815-3.553,1.854-3.592a.083.083,0,0,0-.077-.077Zm9.346,0H58.1a.234.234,0,0,0-.232.116c-.039.039-.579,1.081-.579,1.081a.08.08,0,0,1-.154,0s-.463-1-.5-1.043a.259.259,0,0,0-.27-.154h-.7a.038.038,0,0,0-.039.039c0,.039,1.081,2.356,1.081,2.356s-.541,1.043-.541,1.081c-.039.116,0,.193.116.193h.772s1.815-3.553,1.854-3.592c0-.039,0-.077-.077-.077Zm2.588.27a1.73,1.73,0,0,0-1.159-.348,1.466,1.466,0,0,0-1.12.386,1.173,1.173,0,0,0-.386.888,1.13,1.13,0,0,0,.386.888,1.8,1.8,0,0,0,1.159.348,1.62,1.62,0,0,0,1.159-.386,1.234,1.234,0,0,0,.386-.888,1.3,1.3,0,0,0-.43-.887Zm-.657,1.12c-.232.425-.541.618-.85.463-.348-.154-.386-.463-.116-.966.232-.425.541-.618.85-.463.3.195.343.5.111.967Zm-8.69-1.12a1.73,1.73,0,0,0-1.159-.348,1.466,1.466,0,0,0-1.12.386,1.173,1.173,0,0,0-.386.888,1.13,1.13,0,0,0,.386.888,1.8,1.8,0,0,0,1.159.348,1.62,1.62,0,0,0,1.159-.386A1.234,1.234,0,0,0,52.5,16.8a1.3,1.3,0,0,0-.43-.887Zm-.657,1.12c-.232.425-.5.618-.85.463s-.386-.463-.116-.966c.232-.425.541-.618.85-.463.3.195.343.5.112.967Zm1.429-1.274a.261.261,0,0,0-.154.232V18h.85a.141.141,0,0,0,.154-.154V16.1c.579-.154.927,0,.927.27v1.468a.1.1,0,0,0,.116.116h.85V16.375c0-.734-1-1.081-2.742-.618Zm11.239-.116a.141.141,0,0,0-.154.154v1.738c-.579.154-.927,0-.927-.232V15.835a.1.1,0,0,0-.116-.116h-.85V17.3c0,.811,1,1.159,2.742.7a.261.261,0,0,0,.154-.232V15.757l-.85-.116Zm8.574.309a1.621,1.621,0,0,0-1.12-.348,1.582,1.582,0,0,0-1.081.348,1.319,1.319,0,0,0-.386.85,1.107,1.107,0,0,0,.386.85,1.689,1.689,0,0,0,1.12.348,1.517,1.517,0,0,0,1.081-.348,1.319,1.319,0,0,0,.386-.85,1.043,1.043,0,0,0-.391-.849Zm-.618,1.081q-.348.637-.811.463c-.309-.116-.348-.463-.116-.927.232-.425.5-.618.85-.463.27.154.309.463.077.927ZM68.867,14.6v3.437h.811a.1.1,0,0,0,.116-.116V14.483h-.811a.1.1,0,0,0-.116.116Zm9.771-.116a.141.141,0,0,0-.154.154v1a2.279,2.279,0,0,0-.541-.077,1.62,1.62,0,0,0-1.159.386,1.218,1.218,0,0,0-.039,1.815,1.815,1.815,0,0,0,1.159.386,2.28,2.28,0,0,0,.541-.077v.077h.888A.141.141,0,0,0,79.488,18V14.483h-.85Zm-.116,2.51a.135.135,0,0,1-.039.077c-.232.425-.541.618-.888.5-.348-.154-.386-.463-.116-.966.232-.463.541-.618.888-.5a.533.533,0,0,1,.154.116.439.439,0,0,1,.116.309,1.028,1.028,0,0,1-.116.463ZM68.365,15.912a1.4,1.4,0,0,0-1.12-.27,2.02,2.02,0,0,0-1.159.425,1.184,1.184,0,0,0-.348.734,1.06,1.06,0,0,0,.309.888,1.8,1.8,0,0,0,1.159.348,1.466,1.466,0,0,0,1.12-.386.533.533,0,0,0,.116-.154l-.232-.154a1.578,1.578,0,0,1-.927.386c-.5-.039-.657-.348-.618-.657a2.057,2.057,0,0,1,.425-1.043.492.492,0,0,1,.425-.193.264.264,0,0,1,.27.27.657.657,0,0,1-.039.27h.85a.459.459,0,0,0-.154-.425c-.039.039-.039,0-.077-.039Z" transform="translate(-31.985 15.345)" fill="#e40012"/>
  </g>
</svg>
