<svg xmlns="http://www.w3.org/2000/svg" xmlns:xlink="http://www.w3.org/1999/xlink" width="50" height="50" viewBox="0 0 50 50">
  <defs>
    <clipPath id="clip-Youzan">
      <rect width="50" height="50"/>
    </clipPath>
  </defs>
  <g id="Youzan" clip-path="url(#clip-Youzan)">
    <g transform="translate(686 -181.412)">
      <path d="M28.091,19.237H50.379c5.857,0,8.858,3,8.858,8.855V50.379c0,5.857-3,8.858-8.858,8.858H28.091c-5.857,0-8.855-3-8.855-8.858V28.091C19.237,22.235,22.235,19.237,28.091,19.237Z" transform="translate(-700.236 167.175)" fill="#e1192b"/>
      <path d="M247.61,168.158c-1.433.143-2.866.428-4.445.571a1.184,1.184,0,0,1-1.433-1.288c0-.86.143-1.716.143-2.576.143-1,.143-2.148.286-3.15a2.834,2.834,0,0,0-2.294-3,1.835,1.835,0,0,0-2.294,1.716c-.286,2-.715,3.867-1.147,5.869a11.948,11.948,0,0,1-1.716,4.438,4.177,4.177,0,0,1-2.008,2.148.66.66,0,0,0-.429.714v12.743h.429l14.194-2.148a2.05,2.05,0,0,0,1.865-2.433,2.364,2.364,0,0,1,.286-1.434,3.511,3.511,0,0,0,.289-2.433,2.391,2.391,0,0,1,.143-1.716,6.066,6.066,0,0,0,.286-3.578,4.929,4.929,0,0,1,.143-2c.286-1.431-.429-2.576-2.008-2.433h-.286ZM231.121,173.6h-.435c-1,.143-1.862.428-2.866.571a1.143,1.143,0,0,0-1,1.288v10.45a1.037,1.037,0,0,0,1.29,1.145l2.58-.428c.432,0,.432-.143.432-.574V173.6Z" transform="translate(-899.434 33.387)" fill="#fff"/>
    </g>
  </g>
</svg>
